<?xml version="1.0" encoding="utf-8"?>
<!-- Generator: Adobe Illustrator 17.0.0, SVG Export Plug-In . SVG Version: 6.00 Build 0)  -->
<!DOCTYPE svg PUBLIC "-//W3C//DTD SVG 1.1//EN" "http://www.w3.org/Graphics/SVG/1.1/DTD/svg11.dtd">
<svg version="1.1" id="Capa_1" xmlns="http://www.w3.org/2000/svg" xmlns:xlink="http://www.w3.org/1999/xlink" x="0px" y="0px"
	 width="50px" height="50px" viewBox="0 0 50 50" enable-background="new 0 0 50 50" xml:space="preserve">
<g>
	<path d="M26.465,50c-0.977,0-1.953,0-2.93,0c-0.126-0.027-0.25-0.072-0.377-0.08c-3.068-0.202-6.011-0.934-8.763-2.291
		C6.728,43.85,2.035,37.757,0.394,29.35C0.209,28.399,0.129,27.427,0,26.465c0-0.977,0-1.953,0-2.93
		c0.028-0.14,0.073-0.279,0.083-0.421c0.243-3.488,1.166-6.791,2.853-9.846C6.825,6.227,12.732,1.915,20.645,0.394
		c0.954-0.183,1.926-0.265,2.89-0.394c0.977,0,1.953,0,2.93,0c0.126,0.027,0.25,0.072,0.377,0.08
		c3.051,0.203,5.977,0.928,8.718,2.272c7.696,3.772,12.398,9.874,14.046,18.298c0.186,0.951,0.265,1.923,0.394,2.886
		c0,0.977,0,1.953,0,2.93c-0.028,0.14-0.073,0.279-0.083,0.421c-0.243,3.488-1.166,6.791-2.853,9.846
		c-3.889,7.041-9.795,11.353-17.708,12.874C28.402,49.789,27.429,49.871,26.465,50z M31.275,38.585
		c-3.477-3.477-6.849-6.849-10.222-10.222c0.029-0.042,0.058-0.083,0.087-0.125c6.683,0,13.365,0,20.075,0c0-2.193,0-4.348,0-6.558
		c-6.704,0-13.379,0-20.054,0c-0.025-0.043-0.05-0.087-0.075-0.13c3.366-3.352,6.733-6.705,10.177-10.135c-0.269,0-0.426,0-0.583,0
		c-2.636,0.003-5.273,0.012-7.909,0.001c-0.339-0.001-0.569,0.106-0.804,0.342c-4.282,4.303-8.571,8.598-12.859,12.895
		c-0.112,0.113-0.217,0.234-0.335,0.362c0.07,0.08,0.119,0.143,0.175,0.198c4.37,4.376,8.739,8.753,13.12,13.117
		c0.149,0.148,0.42,0.242,0.635,0.244c2.392,0.017,4.785,0.011,7.177,0.011C30.3,38.585,30.719,38.585,31.275,38.585z"/>
</g>
</svg>
