<?xml version="1.0" encoding="utf-8"?>
<!-- Generator: Adobe Illustrator 17.0.0, SVG Export Plug-In . SVG Version: 6.00 Build 0)  -->
<!DOCTYPE svg PUBLIC "-//W3C//DTD SVG 1.1//EN" "http://www.w3.org/Graphics/SVG/1.1/DTD/svg11.dtd">
<svg version="1.1" id="Capa_1" xmlns="http://www.w3.org/2000/svg" xmlns:xlink="http://www.w3.org/1999/xlink" x="0px" y="0px"
	 width="50px" height="50px" viewBox="0 0 50 50" enable-background="new 0 0 50 50" xml:space="preserve">
<g>
	<g>
		<g>
			<g>
				<path d="M45.988,21.88H51c-0.376-8.033-4.336-15.101-10.338-19.674l-3.572,3.572C42.178,9.424,45.599,15.238,45.988,21.88z"/>
				<path d="M14.922,5.789l-3.584-3.584C5.336,6.779,1.376,13.847,1.001,21.88h5.012C6.401,15.238,9.822,9.424,14.922,5.789z"/>
				<path d="M41.038,23.133c0-7.707-4.098-14.135-11.279-15.84V5.589c0-2.08-1.679-3.759-3.759-3.759s-3.759,1.679-3.759,3.759
					v1.704c-7.181,1.704-11.279,8.133-11.279,15.84v12.531l-5.013,5.013v2.506h40.1v-2.506l-5.013-5.013V23.133H41.038z"/>
				<path d="M26,50.702L26,50.702c0.351,0,0.69-0.038,1.015-0.1c1.629-0.339,2.97-1.466,3.609-2.958
					c0.251-0.602,0.388-1.253,0.388-1.955H20.988C20.987,48.459,23.231,50.702,26,50.702z"/>
			</g>
		</g>
	</g>
</g>
</svg>
